<?xml version="1.0" standalone="no"?><svg xmlns="http://www.w3.org/2000/svg" viewBox="0 0 1440 320"><path fill="#ff5500" fill-opacity="1" d="M0,64L34.3,90.7C68.6,117,137,171,206,165.3C274.3,160,343,96,411,101.3C480,107,549,181,617,213.3C685.7,245,754,235,823,202.7C891.4,171,960,117,1029,90.7C1097.1,64,1166,64,1234,85.3C1302.9,107,1371,149,1406,170.7L1440,192L1440,320L1405.7,320C1371.4,320,1303,320,1234,320C1165.7,320,1097,320,1029,320C960,320,891,320,823,320C754.3,320,686,320,617,320C548.6,320,480,320,411,320C342.9,320,274,320,206,320C137.1,320,69,320,34,320L0,320Z"></path></svg>